<svg xmlns="http://www.w3.org/2000/svg" fill="none" viewBox="0 0 48 48" height="48" width="48"><path fill="#1f2122" fill-rule="evenodd" d="M27.6361 2.59335C28.5402 2.47441 29.462 2.46988 30.3688 2.56258C32.4882 2.77924 33.6627 4.70205 33.7325 6.64996C33.8745 10.6172 34.1022 18.1525 34.1191 26.0698C34.1892 26.0244 34.264 25.9761 34.3436 25.9249C35.014 25.4943 36.023 24.86 37.3816 24.0428C39.3928 22.8332 42.1512 23.0442 43.409 25.2312C43.8577 26.0114 44.2753 26.9271 44.5474 27.948C44.9852 29.5902 44.2667 31.1981 43.1972 32.3455C41.3506 34.3264 37.9758 37.8415 33.7951 41.7226C31.7818 43.5916 29.2979 44.9212 26.5159 45.1921C24.7765 45.3614 22.4379 45.498 19.4195 45.498C17.3438 45.498 15.5617 45.4334 14.0617 45.3381C9.908 45.074 6.37375 42.5198 5.31525 38.437C4.37646 34.8159 3.5 29.3685 3.5 21.6511C3.5 21.6394 3.50041 21.6278 3.50122 21.6162C3.50288 15.0774 3.80332 10.5391 3.98641 8.3791C4.072 7.36941 4.50281 6.22774 5.62409 5.7681C7.47769 5.00829 9.93167 5.01492 11.7647 5.83072C12.768 6.27728 13.1815 7.29392 13.3043 8.20295C13.5263 9.84682 13.8973 13.0453 14.168 17.6921C17.382 17.1405 19.8743 16.8791 21.5905 16.7562C22.6423 16.6808 23.4026 16.6576 23.8588 16.6514C23.9137 13.9369 24.3719 9.02339 24.6644 6.10879C24.8291 4.46769 25.8118 2.83337 27.6361 2.59335Z" clip-rule="evenodd"></path><path fill="#d9d51b" d="M34.1047 23.2724C34.112 24.1771 34.1169 25.092 34.119 26.0123C33.8334 26.1418 33.5049 26.1832 33.1752 26.11C29.2557 25.2396 24.129 27.0037 22.4234 32.12C22.1614 32.9059 21.3119 33.3306 20.526 33.0686C19.7401 32.8067 19.3154 31.9572 19.5774 31.1713C21.8718 24.2887 28.7451 22.0532 33.8256 23.1813C33.9232 23.203 34.0164 23.2337 34.1047 23.2724Z"></path></svg>